Coordinates
version=1
nRows=11
nColumns=36
inDegrees=yes

Units are S.I. units (second, meters, Newtons, ...)
If the header above contains a line with 'inDegrees', this indicates whether rotational values are in degrees (yes) or radians (no).

endheader
time	pelvis_tilt	pelvis_list	pelvis_rotation	pelvis_tx	pelvis_ty	pelvis_tz	hip_flexion_r	hip_adduction_r	hip_rotation_r	knee_angle_r	knee_angle_r_beta	ankle_angle_r	subtalar_angle_r	mtp_angle_r	hip_flexion_l	hip_adduction_l	hip_rotation_l	knee_angle_l	knee_angle_l_beta	ankle_angle_l	subtalar_angle_l	mtp_angle_l	lumbar_extension	lumbar_bending	lumbar_rotation	arm_flex_r	arm_add_r	arm_rot_r	elbow_flex_r	pro_sup_r	arm_flex_l	arm_add_l	arm_rot_l	elbow_flex_l	pro_sup_l
      5.53333330	      3.07421112	     -1.12872001	      2.78627659	      1.23190959	      1.01554556	     -0.05782970	     34.15833656	      0.17799007	      5.13984676	     22.78944953	      0.39775093	      1.58022918	     -1.67414676	     -7.49999987	     -2.07429770	      5.98674455	     -3.42320590	      7.39129118	      0.12900237	     12.60364725	     -3.08915270	     -7.49999987	    -15.32428565	     -0.68079635	     -1.75347151	     51.51725579	      4.30358788	     65.88965958	    118.38703171	     91.50817705	     62.42725262	    -10.91346080	     61.14331940	    130.65634874	     93.03917753
      5.55000000	      3.02612737	     -1.46904493	      2.73737401	      1.23164761	      1.01497057	     -0.05846332	     33.60727225	      0.49425654	      5.39898888	     22.90668460	      0.39979707	      1.97754852	     -2.03916091	     -7.49999987	     -2.49047890	      5.78400078	     -3.08775601	      6.87266198	      0.11995058	     13.18099792	     -2.89525036	     -7.49999987	    -14.99802905	     -0.30069124	     -1.97671894	     50.92537097	      4.21843483	     66.04032314	    118.33364210	     91.52072729	     61.99095659	    -10.91141984	     61.21641432	    130.71285141	     93.06597465
      5.56666670	      3.29749007	     -1.94797104	      2.77489161	      1.23204649	      1.01371097	     -0.05923567	     32.47765717	      0.92995031	      5.62775917	     22.63892474	      0.39512378	      1.72103460	     -3.04156357	     -7.49999987	     -3.17461216	      5.36396147	     -3.17442573	      6.41838367	      0.11202193	     13.82130339	     -1.97488828	     -7.49999987	    -14.94306373	      0.50492913	     -2.08522480	     50.38512602	      4.31136373	     65.83720507	    117.87469973	     91.51096040	     61.07729298	    -10.92741388	     60.64755251	    130.66693869	     93.14655152
      5.58333330	      3.55526018	     -2.14746754	      2.75688810	      1.23206174	      1.01098401	     -0.05943853	     31.45116160	      1.09331274	      5.86431742	     22.46568476	      0.39210017	      1.53112772	     -3.73273327	     -7.49999987	     -3.74268806	      5.20649534	     -3.32110473	      6.07654351	      0.10605569	     14.51751990	     -1.16431247	     -7.49999987	    -15.08731556	      0.94965703	     -2.33024481	     50.65297952	      4.50345963	     66.05855497	    117.65196726	     89.35247669	     60.78666898	    -11.06047587	     60.10365945	    131.10367907	     91.14018677
      5.60000000	      3.54292200	     -2.24632942	      2.85333359	      1.23295552	      1.01006238	     -0.05943066	     30.65703521	      1.10401132	      6.06721856	     22.31553605	      0.38947958	      1.44404992	     -4.15926292	     -7.49999987	     -3.89571290	      5.18940612	     -2.92777990	      5.77759440	      0.10083805	     14.73525794	     -1.19542164	     -7.49999987	    -14.86776291	      1.15779856	     -2.29470968	     50.17798338	      4.24701401	     66.03442068	    118.08514880	     89.48995752	     60.33607562	    -10.84827031	     59.83287089	    131.02916700	     91.43393415
      5.61666670	      3.61625113	     -2.45325573	      2.91229086	      1.24328845	      1.00732807	     -0.05791537	     29.49793179	      1.24447286	      6.25327290	     22.09024543	      0.38554752	      1.52265195	     -4.59068381	     -7.49999987	     -4.50559693	      4.98863930	     -2.54743985	      5.19170431	      0.09061233	     15.14459914	     -0.96947398	     -7.49999987	    -14.27474056	      1.51346004	     -2.19282111	     49.26376443	      4.32015083	     66.02211808	    118.52682098	     89.76049771	     59.52314822	    -10.86401694	     59.63099545	    131.38125450	     91.79227668
      5.63333330	      3.67738074	     -2.55733341	      2.94430409	      1.24420498	      1.00627968	     -0.05755175	     28.36266603	      1.33491847	      6.62425928	     21.75592042	      0.37971244	      1.29654284	     -5.11931230	     -7.49999987	     -4.97679100	      4.88298512	     -2.13905460	      4.71717067	      0.08233016	     15.70036826	     -0.37610738	     -7.49999987	    -13.72134745	      1.76097609	     -2.09621897	     48.50280125	      4.70962746	     66.15451546	    118.61625111	     89.96293400	     58.53138934	    -10.48447769	     58.92933682	    131.82338079	     92.19329988
      5.65000000	      3.68473369	     -2.58123007	      2.94823953	      1.24420466	      1.00598293	     -0.05792969	     27.24738303	      1.28685349	      6.94116289	     21.04723716	      0.36734359	      1.06809928	     -5.38969013	     -7.49999987	     -5.40661917	      4.89543891	     -1.61583379	      4.18362725	      0.07301807	     16.17112965	     -0.00314904	     -7.49999987	    -13.29578655	      1.88815224	     -1.96063306	     48.04228694	      4.81141240	     66.36607116	    118.57107407	     90.10040623	     57.73788081	    -10.26511841	     58.55011652	    131.90508728	     92.40438759
      5.66666670	      3.77858229	     -2.63171785	      2.90778875	      1.24510217	      1.00289827	     -0.05718799	     26.08707573	      1.28386761	      7.47977313	     20.56599676	      0.35894436	      1.16266503	     -5.75441021	     -7.49999987	     -5.79075111	      4.87369490	     -1.27394258	      3.83840824	      0.06699286	     16.65679418	      0.41065578	     -7.49999987	    -13.00750578	      2.03325957	     -1.76273137	     47.82203627	      4.77553650	     66.25457310	    118.77625808	     91.69295472	     56.98601358	     -9.94568268	     57.81179536	    132.06879743	     94.64700502
      5.68333330	      3.75538283	     -2.80375058	      3.04464276	      1.24978726	      0.99981489	     -0.05370457	     24.96140871	      1.44135526	      7.83839218	     20.19595076	      0.35248584	      1.44901679	     -6.26978073	     -7.49999987	     -6.09778874	      4.68243994	     -0.51303755	      3.50321687	      0.06114267	     17.03602270	      0.14697295	     -7.49999987	    -12.41339747	      2.19256022	     -1.75773084	     47.27421694	      4.94885820	     65.81419342	    118.50742087	     91.00361940	     56.26517450	     -9.75417531	     57.40597538	    132.22871132	     93.92429618
      5.70000000	      3.64456658	     -2.90102704	      2.83163431	      1.25036758	      0.99969779	     -0.05332016	     23.99536705	      1.66384560	      8.28232276	     20.06398653	      0.35018263	      1.67181564	     -6.44617326	     -7.49999987	     -6.27038366	      4.60045627	     -0.22801159	      3.15225776	      0.05501728	     17.45805886	      0.36671853	     -7.49999987	    -11.86021192	      2.20573708	     -1.57755686	     46.80209678	      5.00962649	     65.89620922	    118.61235995	     91.04276725	     55.76316059	     -9.78233960	     57.43542469	    132.36495362	     93.97124951
